<?xml version="1.0" encoding="UTF-8" standalone="no"?>
<svg
   version="1.1"
   viewBox="0.00 0.00 720.00 715.00"
   id="svg18"
   sodipodi:docname="icon.svg"
   inkscape:version="1.1.2 (b8e25be833, 2022-02-05)"
   xmlns:inkscape="http://www.inkscape.org/namespaces/inkscape"
   xmlns:sodipodi="http://sodipodi.sourceforge.net/DTD/sodipodi-0.dtd"
   xmlns="http://www.w3.org/2000/svg"
   xmlns:svg="http://www.w3.org/2000/svg">
  <defs
     id="defs22" />
  <sodipodi:namedview
     id="namedview20"
     pagecolor="#505050"
     bordercolor="#ffffff"
     borderopacity="1"
     inkscape:pageshadow="0"
     inkscape:pageopacity="0"
     inkscape:pagecheckerboard="1"
     showgrid="false"
     inkscape:zoom="0.86336255"
     inkscape:cx="1126.9889"
     inkscape:cy="564.65271"
     inkscape:window-width="3840"
     inkscape:window-height="1521"
     inkscape:window-x="-9"
     inkscape:window-y="-9"
     inkscape:window-maximized="1"
     inkscape:current-layer="svg18" />
  <path
     fill="#010102"
     d="M 222.01,417.03 C 179.18274,396.64753 134.83339,376.11413 99.79,343.52 41.562305,288.28776 44.060703,185.43061 101.01252,130.17653 154.22725,79.049549 230.78672,67.382149 301.084,58.09503 401.22875,45.709967 502.3025,45.248563 602.99,41.48 c 3.59768,8.211572 0.50802,20.396751 1.53665,30.115736 C 604.30002,119.26155 604.95682,167.07799 604.18,214.65 588.27214,225.5308 585.63301,181.1325 569.47492,174.3178 529.23671,130.9155 469.77685,111.99802 412.93622,102.81719 362.19168,95.915255 301.41529,96.855296 264.32965,137.60353 237.73618,167.8599 245.1962,219.36343 279.32777,240.96996 327.23721,273.65957 382.10497,294.42558 432.9,322 c 51.13919,23.54067 103.77891,45.16421 150.9902,76.22586 48.2624,28.77587 79.01635,85.06208 71.44523,141.43834 -3.41122,33.24702 -18.07008,64.98837 -36.77543,91.9358 -72.73667,0.0133 -145.47333,0.0267 -218.21,0.04 19.71265,-17.04526 36.61066,-42.02341 33.32,-69.76 -4.1334,-43.94845 -47.88994,-65.91513 -82.03,-85.18 -42.44205,-21.40091 -86.93255,-38.70619 -129.63,-59.67 z"
     id="path12"
     sodipodi:nodetypes="ccssssssssssssssssssssssssssssssssssssssssssssssssssccssccsscccssccsssssccsssssc"
     style="fill:#550000" />
  <path
     fill="#010102"
     d="m 84.809552,459.38239 c -0.359731,-0.5735 -0.391109,-0.97862 0.46,-1.03 0.851109,-0.0514 1.679904,0.89447 2.430978,1.6381 52.55684,52.03566 108.98812,115.07893 148.22903,171.0519 0.19127,0.27283 -0.0168,0.65 -0.35,0.65 H 63.039552 c -0.382597,0 -0.589685,-0.44011 -0.34,-0.73 11.189241,-12.99112 20.566736,-27.23826 28.15,-42.73 8.81675,-18.0116 13.969288,-36.08 14.060008,-55.91 0.0726,-15.87334 -2.37413,-31.38198 -7.329998,-46.53 -1.52414,-4.65865 -4.175794,-9.54166 -6.12001,-14.45 -1.715795,-4.33167 -4.109731,-7.91017 -6.65,-11.96 z"
     id="path14"
     sodipodi:nodetypes="ssssssssssss"
     style="fill:#550000" />
  <path
     fill="#010102"
     d="m 40.73,667.76 c -0.42,-3e-4 -0.620066,-0.21 -0.6,-0.63 0.366601,-7.67333 0.200248,-15.33639 -0.49,-22.99 -0.10843,-1.2023 0.846784,-1.7276 2.19,-1.73 208.4001,-0.37237 434.78391,-0.13349 620.6,0.02 0.69055,5.7e-4 0.82673,0.92651 0.17,1.14 -21.23042,6.90154 -42.49815,16.24525 -59.87,23.61 -0.60416,0.25613 -1.77335,0.34905 -3.48,0.36 -182.57636,1.17172 -386.93838,0.34101 -558.52,0.22 z"
     id="path16"
     sodipodi:nodetypes="sssssssss"
     style="fill:#550000" />
</svg>
